Coordinates
version=1
nRows=11
nColumns=40
inDegrees=yes

Units are S.I. units (second, meters, Newtons, ...)
Angles are in degrees.

endheader
time	pelvis_tilt	pelvis_list	pelvis_rotation	pelvis_tx	pelvis_ty	pelvis_tz	hip_flexion_r	hip_adduction_r	hip_rotation_r	knee_angle_r	knee_angle_r_beta	ankle_angle_r	subtalar_angle_r	mtp_angle_r	hip_flexion_l	hip_adduction_l	hip_rotation_l	knee_angle_l	knee_angle_l_beta	ankle_angle_l	subtalar_angle_l	mtp_angle_l	lumbar_extension	lumbar_bending	lumbar_rotation	arm_flex_r	arm_add_r	arm_rot_r	elbow_flex_r	pro_sup_r	wrist_flex_r	wrist_dev_r	arm_flex_l	arm_add_l	arm_rot_l	elbow_flex_l	pro_sup_l	wrist_flex_l	wrist_dev_l
      7.70500000	     -2.93866836	     -5.88983092	     15.18934818	      0.99203456	      0.92079018	      0.47543451	      6.78962444	      4.79959223	    -15.26236110	     17.82023623	     17.82023623	     16.82780504	     -7.83892188	     -6.01366807	     30.06789468	     -6.50653852	      5.56001638	     20.07571572	     20.07571572	     -1.96113778	     -1.69962182	     -0.53695262	     -8.93768853	      4.68347809	      2.61435092	     67.57059153	    -20.30442722	     -5.54266911	     82.13524902	     44.70606004	      0.00000000	      0.00000000	    -24.14690377	     -9.93801378	     23.49651779	     30.72396965	     42.63869237	      0.00000000	      0.00000000
      7.72607143	     -3.11995677	     -5.93882574	     15.22836180	      0.99479523	      0.91967605	      0.47217172	      6.49872654	      4.70614430	    -15.22947656	     17.89659660	     17.89659660	     17.13263917	     -7.92563168	     -6.01982832	     29.72843823	     -6.36517914	      6.02288881	     20.31542618	     20.31542618	     -1.07890599	     -1.70613602	     -0.93904227	     -8.75922394	      4.47060578	      2.56855768	     68.61698776	    -19.79716537	     -5.35583056	     82.92589054	     44.68164162	      0.00000000	      0.00000000	    -23.40406457	    -10.14066189	     23.48936505	     30.81232848	     42.66268223	      0.00000000	      0.00000000
      7.74714286	     -3.22272892	     -6.01966728	     15.23255738	      0.99761631	      0.91875311	      0.46870141	      6.09719835	      4.66280336	    -15.15868726	     17.91867774	     17.91867774	     17.43897687	     -7.93538564	     -5.87922060	     29.46330534	     -6.25216971	      6.46962552	     20.82232015	     20.82232015	     -0.09824780	     -1.90351717	     -1.34220410	     -8.72490850	      4.35906252	      2.38157421	     69.44789124	    -19.19397426	     -5.01553709	     84.29405982	     44.63522374	      0.00000000	      0.00000000	    -22.74549593	    -10.18854584	     23.54537356	     30.81689366	     42.68672420	      0.00000000	      0.00000000
      7.76821429	     -3.43012363	     -6.11346241	     15.27137900	      1.00044126	      0.91809171	      0.46493156	      5.67646213	      4.60786620	    -15.18889666	     17.70110321	     17.70110321	     17.75818277	     -7.70409760	     -5.10412925	     29.35741597	     -6.05474737	      6.97190730	     21.38333600	     21.38333600	      0.93338558	     -2.25053089	     -1.27524676	     -8.61021076	      4.24654173	      2.37273557	     69.49737546	    -19.11043970	     -4.46538810	     86.84283199	     44.55695307	      0.00000000	      0.00000000	    -21.77531513	    -10.37764192	     23.65028179	     30.66482571	     42.75873814	      0.00000000	      0.00000000
      7.78928571	     -3.61106502	     -6.12459847	     15.24543317	      1.00309698	      0.91772357	      0.46098733	      5.21629666	      4.43329648	    -15.27250102	     17.51668602	     17.51668602	     18.21213008	     -7.20761715	     -4.04927138	     29.28127341	     -5.76376463	      7.41069520	     22.07420663	     22.07420663	      2.07582039	     -2.78001491	     -0.62359309	     -8.54430524	      4.08524300	      2.87913174	     69.58149849	    -19.63758318	     -4.18954416	     88.63868102	     44.53184930	      0.00000000	      0.00000000	    -20.48391152	    -10.77543919	     23.81269748	     30.62822885	     42.87751113	      0.00000000	      0.00000000
      7.81035714	     -3.87636357	     -6.06987528	     15.15297436	      1.00560007	      0.91745734	      0.45694749	      4.82837959	      4.17035748	    -15.22081935	     17.26726349	     17.26726349	     18.20753492	     -7.08993665	     -3.91291765	     29.25333190	     -5.43799243	      7.55917278	     22.64601190	     22.64601190	      2.77027372	     -3.16839691	     -0.90329376	     -8.36001250	      3.86082607	      2.91708803	     69.83451296	    -19.24137079	     -4.01064960	     88.83308802	     44.52356158	      0.00000000	      0.00000000	    -19.45359140	    -11.11376955	     23.72383323	     30.86466011	     42.91170398	      0.00000000	      0.00000000
      7.83142857	     -3.99957353	     -6.15832450	     15.03670016	      1.00799762	      0.91754836	      0.45276464	      4.16313355	      4.07433957	    -15.49485033	     16.71818532	     16.71818532	     18.34237747	     -6.14196859	     -3.12927221	     29.28538566	     -5.16190450	      8.16516801	     23.54421690	     23.54421690	      3.82912521	     -4.26218431	      0.12649571	     -8.38679459	      3.90429649	      3.19593194	     69.95767530	    -19.36804587	     -3.59079082	     89.74108118	     44.51611009	      0.00000000	      0.00000000	    -18.43299941	    -11.51393125	     23.70763224	     31.34922072	     43.02385216	      0.00000000	      0.00000000
      7.85250000	     -4.25868428	     -6.14228152	     14.78576900	      1.01013630	      0.91759956	      0.44873450	      3.79668495	      3.82773247	    -15.39723964	     16.44013637	     16.44013637	     18.19975098	     -5.87387434	     -2.95830499	     29.33730237	     -4.91903075	      8.14719674	     24.18442889	     24.18442889	      4.38604915	     -4.79143844	     -0.02904796	     -8.26894489	      3.79552886	      3.34369520	     69.95258479	    -18.99910159	     -3.39939105	     89.74279826	     44.51330671	      0.00000000	      0.00000000	    -17.37939639	    -11.89799527	     23.58105530	     31.64115241	     43.06440301	      0.00000000	      0.00000000
      7.87357143	     -4.39607062	     -6.28567550	     14.51180918	      1.01217548	      0.91782632	      0.44465110	      3.22287478	      3.77700732	    -15.47609330	     15.91353025	     15.91353025	     18.02589144	     -5.11799846	     -2.67680145	     29.40019386	     -4.78671637	      8.45131245	     24.99893327	     24.99893327	      5.04189961	     -5.74468386	      0.22416018	     -8.23871698	      3.92903503	      3.66944204	     69.90878667	    -18.95311381	     -3.23781018	     89.52621261	     44.52410569	      0.00000000	      0.00000000	    -16.37218516	    -12.26576923	     23.39960658	     32.13541467	     43.12657260	      0.00000000	      0.00000000
      7.89464286	     -4.59837111	     -6.27430090	     14.14925653	      1.01394133	      0.91825800	      0.44061164	      2.80703732	      3.46958536	    -15.66303479	     15.61583199	     15.61583199	     17.89532352	     -4.12284731	     -2.35590128	     29.32427561	     -4.53201272	      8.60285849	     25.51605947	     25.51605947	      5.72908464	     -6.58278222	      1.10633352	     -8.18455140	      3.88225590	      4.00941466	     69.63509242	    -18.93343703	     -2.96193199	     88.97970941	     44.54998981	      0.00000000	      0.00000000	    -15.35890254	    -12.74024302	     23.11729592	     32.88889531	     43.22629163	      0.00000000	      0.00000000
      7.91571429	     -4.81841796	     -6.28081071	     13.70850534	      1.01556910	      0.91861080	      0.43676802	      2.58359495	      3.19533459	    -15.45127729	     15.57696678	     15.57696678	     17.64715012	     -3.82207421	     -2.24908342	     29.23225885	     -4.42069964	      8.37075416	     25.91311296	     25.91311296	      6.16423539	     -7.01248678	      1.04635319	     -8.15181573	      3.87208271	      4.13343759	     69.14145552	    -18.51086032	     -2.72866813	     88.73683870	     44.55046651	      0.00000000	      0.00000000	    -14.33881003	    -13.09270255	     22.96435567	     33.20760504	     43.26561562	      0.00000000	      0.00000000
